<svg xmlns="http://www.w3.org/2000/svg" width="1200" height="800" viewBox="0 0 1200 800" fill="none">
  <defs>
    <linearGradient id="bg" x1="90" y1="54" x2="1062" y2="772" gradientUnits="userSpaceOnUse">
      <stop stop-color="#171c29"/>
      <stop offset="1" stop-color="#0b1018"/>
    </linearGradient>
    <linearGradient id="accent" x1="163" y1="160" x2="978" y2="650" gradientUnits="userSpaceOnUse">
      <stop stop-color="#f29a4a"/>
      <stop offset="0.48" stop-color="#f06a9b"/>
      <stop offset="1" stop-color="#67a9ff"/>
    </linearGradient>
    <filter id="blur" x="0" y="0" width="1200" height="800" filterUnits="userSpaceOnUse">
      <feGaussianBlur stdDeviation="42"/>
    </filter>
  </defs>
  <rect width="1200" height="800" rx="36" fill="url(#bg)"/>
  <g opacity="0.25" filter="url(#blur)">
    <ellipse cx="254" cy="164" rx="166" ry="116" fill="#f29a4a"/>
    <ellipse cx="936" cy="196" rx="172" ry="136" fill="#67a9ff"/>
    <ellipse cx="610" cy="664" rx="226" ry="118" fill="#f06a9b"/>
  </g>
  <rect x="116" y="92" width="968" height="616" rx="34" fill="#0e1320" fill-opacity="0.82"/>
  <rect x="116.5" y="92.5" width="967" height="615" rx="33.5" stroke="#ffffff" stroke-opacity="0.08"/>
  <path d="M188 218H1010" stroke="#ffffff" stroke-opacity="0.08"/>
  <circle cx="214" cy="154" r="8" fill="#f29a4a"/>
  <circle cx="242" cy="154" r="8" fill="#f06a9b"/>
  <circle cx="270" cy="154" r="8" fill="#67a9ff"/>
  <rect x="188" y="274" width="248" height="284" rx="26" fill="#121a28"/>
  <rect x="476" y="274" width="248" height="284" rx="26" fill="#121a28"/>
  <rect x="764" y="274" width="248" height="284" rx="26" fill="#121a28"/>
  <rect x="210" y="300" width="204" height="116" rx="20" fill="#0a1019" stroke="#ffffff" stroke-opacity="0.07"/>
  <rect x="498" y="300" width="204" height="116" rx="20" fill="#0a1019" stroke="#ffffff" stroke-opacity="0.07"/>
  <rect x="786" y="300" width="204" height="116" rx="20" fill="#0a1019" stroke="#ffffff" stroke-opacity="0.07"/>
  <path d="M230 366C254 320 286 304 326 318C368 332 388 316 398 302" stroke="#f29a4a" stroke-width="10" stroke-linecap="round"/>
  <path d="M518 354H682" stroke="#f06a9b" stroke-width="10" stroke-linecap="round"/>
  <path d="M518 380H658" stroke="#f06a9b" stroke-opacity="0.5" stroke-width="10" stroke-linecap="round"/>
  <path d="M816 330L846 388L888 328L924 388L966 302" stroke="#67a9ff" stroke-width="10" stroke-linecap="round" stroke-linejoin="round"/>
  <rect x="210" y="448" width="164" height="18" rx="9" fill="#ffffff" fill-opacity="0.18"/>
  <rect x="210" y="482" width="124" height="14" rx="7" fill="#ffffff" fill-opacity="0.1"/>
  <rect x="210" y="522" width="140" height="38" rx="12" fill="#f29a4a"/>
  <rect x="498" y="448" width="164" height="18" rx="9" fill="#ffffff" fill-opacity="0.18"/>
  <rect x="498" y="482" width="124" height="14" rx="7" fill="#ffffff" fill-opacity="0.1"/>
  <rect x="498" y="522" width="140" height="38" rx="12" fill="#f06a9b"/>
  <rect x="786" y="448" width="164" height="18" rx="9" fill="#ffffff" fill-opacity="0.18"/>
  <rect x="786" y="482" width="124" height="14" rx="7" fill="#ffffff" fill-opacity="0.1"/>
  <rect x="786" y="522" width="140" height="38" rx="12" fill="#67a9ff"/>
  <path d="M188 630H1010" stroke="url(#accent)" stroke-opacity="0.28" stroke-width="2"/>
</svg>