<svg xmlns="http://www.w3.org/2000/svg" width="256" height="256" viewBox="0 0 256 256" fill="none">
  <defs>
    <linearGradient id="shell" x1="28" y1="22" x2="222" y2="236" gradientUnits="userSpaceOnUse">
      <stop stop-color="#ffb169"/>
      <stop offset="0.5" stop-color="#f06a9b"/>
      <stop offset="1" stop-color="#67a9ff"/>
    </linearGradient>
    <radialGradient id="glow" cx="0" cy="0" r="1" gradientUnits="userSpaceOnUse" gradientTransform="translate(186 42) rotate(133) scale(172)">
      <stop stop-color="#ffffff" stop-opacity="0.55"/>
      <stop offset="1" stop-color="#ffffff" stop-opacity="0"/>
    </radialGradient>
    <linearGradient id="wire" x1="80" y1="72" x2="176" y2="184" gradientUnits="userSpaceOnUse">
      <stop stop-color="#f29a4a"/>
      <stop offset="1" stop-color="#67a9ff"/>
    </linearGradient>
  </defs>
  <rect x="12" y="12" width="232" height="232" rx="64" fill="url(#shell)"/>
  <rect x="12" y="12" width="232" height="232" rx="64" fill="url(#glow)"/>
  <rect x="44" y="44" width="168" height="168" rx="42" fill="#0b1019" fill-opacity="0.92"/>
  <rect x="44.5" y="44.5" width="167" height="167" rx="41.5" stroke="#ffffff" stroke-opacity="0.08"/>
  <path d="M82 88H152C168.569 88 182 99.6406 182 114C182 124.494 175.009 133.535 164.835 137.637C179.514 141.588 190 152.271 190 165.5C190 182.897 173.882 196 153.5 196H76V169H149C157.837 169 164 164.281 164 158.5C164 152.719 157.837 148 149 148H100V123H146C154.284 123 160 118.97 160 113.5C160 108.03 154.284 104 146 104H82V88Z" fill="#eef2ff"/>
  <path d="M88 72L105 184L126 122H131L152 184L168 72" stroke="url(#wire)" stroke-width="18" stroke-linecap="round" stroke-linejoin="round"/>
</svg>