<svg xmlns="http://www.w3.org/2000/svg" width="1200" height="700" viewBox="0 0 1200 700" fill="none">
  <defs>
    <linearGradient id="bg" x1="60" y1="50" x2="1088" y2="662" gradientUnits="userSpaceOnUse">
      <stop stop-color="#131927"/>
      <stop offset="1" stop-color="#0b1018"/>
    </linearGradient>
    <linearGradient id="g1" x1="112" y1="124" x2="420" y2="506" gradientUnits="userSpaceOnUse">
      <stop stop-color="#f29a4a"/><stop offset="1" stop-color="#f06a9b"/>
    </linearGradient>
    <linearGradient id="g2" x1="442" y1="138" x2="748" y2="520" gradientUnits="userSpaceOnUse">
      <stop stop-color="#f06a9b"/><stop offset="1" stop-color="#67a9ff"/>
    </linearGradient>
    <linearGradient id="g3" x1="770" y1="110" x2="1082" y2="516" gradientUnits="userSpaceOnUse">
      <stop stop-color="#67a9ff"/><stop offset="1" stop-color="#f29a4a"/>
    </linearGradient>
  </defs>
  <rect width="1200" height="700" rx="30" fill="url(#bg)"/>
  <rect x="86" y="92" width="318" height="446" rx="28" fill="#121a28"/>
  <rect x="441" y="122" width="318" height="446" rx="28" fill="#121a28"/>
  <rect x="796" y="102" width="318" height="446" rx="28" fill="#121a28"/>
  <rect x="86.5" y="92.5" width="317" height="445" rx="27.5" stroke="#ffffff" stroke-opacity="0.08"/>
  <rect x="441.5" y="122.5" width="317" height="445" rx="27.5" stroke="#ffffff" stroke-opacity="0.08"/>
  <rect x="796.5" y="102.5" width="317" height="445" rx="27.5" stroke="#ffffff" stroke-opacity="0.08"/>
  <rect x="118" y="126" width="78" height="78" rx="20" fill="url(#g1)"/>
  <rect x="473" y="156" width="78" height="78" rx="20" fill="url(#g2)"/>
  <rect x="828" y="136" width="78" height="78" rx="20" fill="url(#g3)"/>
  <path d="M148 145H168C182 145 190 151 190 161C190 168 185 173 177 176C189 179 197 186 197 196C197 209 186 218 171 218H144V203H168C175 203 180 200 180 195C180 190 175 187 168 187H153V173H166C173 173 177 170 177 165C177 160 173 158 166 158H148V145Z" fill="#0A0F18"/>
  <path d="M500 208L510 181L522 208L548 218L522 226L510 252L500 226L474 218L500 208Z" fill="#0A0F18"/>
  <path d="M852 155L868 208L884 174L900 208L918 155" stroke="#0A0F18" stroke-width="12" stroke-linecap="round" stroke-linejoin="round"/>
  <rect x="118" y="246" width="210" height="18" rx="9" fill="#ffffff" fill-opacity="0.22"/>
  <rect x="118" y="278" width="168" height="12" rx="6" fill="#ffffff" fill-opacity="0.12"/>
  <rect x="118" y="320" width="126" height="40" rx="12" fill="url(#g1)"/>
  <rect x="473" y="276" width="210" height="18" rx="9" fill="#ffffff" fill-opacity="0.22"/>
  <rect x="473" y="308" width="168" height="12" rx="6" fill="#ffffff" fill-opacity="0.12"/>
  <rect x="473" y="350" width="126" height="40" rx="12" fill="url(#g2)"/>
  <rect x="828" y="256" width="210" height="18" rx="9" fill="#ffffff" fill-opacity="0.22"/>
  <rect x="828" y="288" width="168" height="12" rx="6" fill="#ffffff" fill-opacity="0.12"/>
  <rect x="828" y="330" width="126" height="40" rx="12" fill="url(#g3)"/>
  <rect x="118" y="396" width="248" height="108" rx="20" fill="#0a1019" stroke="#ffffff" stroke-opacity="0.07"/>
  <rect x="473" y="426" width="248" height="108" rx="20" fill="#0a1019" stroke="#ffffff" stroke-opacity="0.07"/>
  <rect x="828" y="406" width="248" height="108" rx="20" fill="#0a1019" stroke="#ffffff" stroke-opacity="0.07"/>
  <path d="M150 474H322" stroke="#f29a4a" stroke-width="10" stroke-linecap="round"/>
  <path d="M150 446H286" stroke="#f06a9b" stroke-opacity="0.7" stroke-width="10" stroke-linecap="round"/>
  <path d="M505 480H675" stroke="#67a9ff" stroke-width="10" stroke-linecap="round"/>
  <path d="M505 452H630" stroke="#f06a9b" stroke-opacity="0.7" stroke-width="10" stroke-linecap="round"/>
  <path d="M860 472H1032" stroke="#67a9ff" stroke-width="10" stroke-linecap="round"/>
  <path d="M860 444H975" stroke="#f29a4a" stroke-opacity="0.7" stroke-width="10" stroke-linecap="round"/>
</svg>